# Blender v2.72 (sub 0) OBJ File: ''
# www.blender.org
mtllib soft_cube.mtl
o Cube.001
v 0.941303 -0.903420 -0.984308
v 0.941303 0.903420 -0.984308
v 0.984309 0.903420 -0.941302
v 0.984309 -0.903420 -0.941302
v -0.984309 -0.941303 0.903420
v -0.984308 -0.941303 -0.903420
v -0.941302 -0.984309 -0.903420
v -0.941303 -0.984309 0.903420
v -0.963762 -0.943730 -0.943730
v -0.943730 -0.943730 -0.963762
v -0.943730 -0.963762 -0.943730
v 0.943729 0.963762 0.943731
v 0.943729 0.943730 0.963763
v 0.963762 0.943730 0.943731
v 0.903420 -1.000000 -0.903420
v 0.903420 -1.000000 0.903420
v -0.903420 -1.000000 0.903420
v -0.903420 -1.000000 -0.903420
v 0.903421 0.903420 -0.999999
v 0.903420 -0.903420 -1.000000
v -0.903420 -0.903420 -1.000000
v -0.903420 0.903420 -1.000000
v 0.984309 -0.903420 0.941303
v 0.984308 0.903420 0.941303
v 0.941302 0.903420 0.984309
v 0.941303 -0.903420 0.984309
v -0.941303 -0.903420 0.984308
v -0.941303 0.903420 0.984308
v -0.984309 0.903420 0.941302
v -0.984309 -0.903420 0.941302
v -0.984308 -0.903420 -0.941303
v -0.984308 0.903420 -0.941303
v -0.941302 0.903420 -0.984309
v -0.941302 -0.903420 -0.984309
v 0.903421 0.941303 -0.984308
v -0.903420 0.941303 -0.984309
v -0.903420 0.984309 -0.941303
v 0.903420 0.984309 -0.941302
v 0.903419 0.984309 0.941303
v -0.903420 0.984309 0.941302
v -0.903420 0.941303 0.984308
v 0.903419 0.941303 0.984309
v -0.941303 0.984309 0.903420
v -0.941302 0.984309 -0.903420
v -0.984308 0.941303 -0.903420
v -0.984309 0.941303 0.903420
v 1.000000 -0.903420 -0.903420
v 1.000000 0.903420 -0.903419
v 0.999999 0.903420 0.903421
v 1.000000 -0.903420 0.903420
v 0.943730 -0.943730 -0.963762
v 0.963762 -0.943730 -0.943730
v 0.943730 -0.963762 -0.943730
v 0.984309 -0.941303 -0.903420
v 0.984309 -0.941303 0.903420
v 0.941303 -0.984309 0.903420
v 0.941303 -0.984309 -0.903420
v 0.943730 -0.963762 0.943730
v 0.963762 -0.943730 0.943730
v 0.943730 -0.943730 0.963762
v 0.903420 -0.903420 1.000000
v 0.903419 0.903420 1.000001
v -0.903420 0.903420 1.000000
v -0.903420 -0.903420 1.000000
v -0.943730 -0.963762 0.943730
v -0.943730 -0.943730 0.963762
v -0.963762 -0.943730 0.943730
v -1.000000 -0.903420 0.903420
v -1.000000 0.903420 0.903420
v -1.000000 0.903420 -0.903420
v -1.000000 -0.903420 -0.903420
v 0.941303 0.984309 -0.903419
v 0.941302 0.984309 0.903421
v 0.984308 0.941303 0.903421
v 0.984309 0.941303 -0.903419
v 0.963763 0.943730 -0.943729
v 0.943730 0.943730 -0.963762
v 0.943730 0.963762 -0.943729
v 0.903420 1.000000 -0.903419
v -0.903420 1.000000 -0.903420
v -0.903420 1.000000 0.903420
v 0.903419 1.000000 0.903421
v -0.943730 0.963762 0.943730
v -0.963762 0.943730 0.943730
v -0.943730 0.943730 0.963762
v -0.943730 0.943730 -0.963762
v -0.963762 0.943730 -0.943730
v -0.943730 0.963762 -0.943730
v 0.903420 -0.941303 0.984309
v -0.903420 -0.941303 0.984308
v -0.903420 -0.984309 0.941302
v 0.903420 -0.984309 0.941303
v 0.903420 -0.941303 -0.984308
v 0.903420 -0.984309 -0.941302
v -0.903420 -0.941303 -0.984309
v -0.903420 -0.984309 -0.941303
vt 0.940020 0.652631
vt 0.949432 0.651890
vt 0.949371 0.929931
vt 0.669717 0.325698
vt 0.669770 0.316506
vt 0.945347 0.316546
vt 0.646399 0.936845
vt 0.651099 0.936045
vt 0.649997 0.940598
vt 0.335165 0.032232
vt 0.330637 0.033204
vt 0.331603 0.028674
vt 0.945380 0.034780
vt 0.945372 0.310444
vt 0.669719 0.310443
vt 0.934065 0.653015
vt 0.934072 0.928831
vt 0.658257 0.928860
vt 0.324496 0.025121
vt 0.323775 0.034481
vt 0.047157 0.034656
vt 0.324032 0.322256
vt 0.324772 0.331643
vt 0.046694 0.331770
vt 0.642840 0.651946
vt 0.652233 0.652692
vt 0.652295 0.929260
vt 0.934462 0.647076
vt 0.657796 0.647069
vt 0.657080 0.637688
vt 0.338933 0.317360
vt 0.329571 0.316629
vt 0.329368 0.040067
vt 0.669256 0.622882
vt 0.669577 0.613570
vt 0.945359 0.613652
vt 0.642093 0.040426
vt 0.642053 0.316108
vt 0.366383 0.316075
vt 0.941255 0.935990
vt 0.945809 0.937094
vt 0.942054 0.940691
vt 0.366353 0.034279
vt 0.366078 0.024959
vt 0.642453 0.025043
vt 0.035800 0.032380
vt 0.039546 0.028768
vt 0.040361 0.033473
vt 0.047571 0.040634
vt 0.323406 0.040444
vt 0.323618 0.316278
vt 0.035929 0.324460
vt 0.040629 0.323658
vt 0.039528 0.328212
vt 0.945323 0.607564
vt 0.669618 0.607497
vt 0.669682 0.331786
vt 0.366391 0.331347
vt 0.366439 0.322145
vt 0.642025 0.322197
vt 0.945913 0.644977
vt 0.941172 0.645922
vt 0.942106 0.641184
vt 0.642048 0.613152
vt 0.366342 0.613153
vt 0.366360 0.337441
vt 0.335389 0.324532
vt 0.331643 0.328144
vt 0.330828 0.323439
vt 0.650990 0.645868
vt 0.646425 0.644758
vt 0.650195 0.641158
vt 0.041822 0.316871
vt 0.032454 0.317592
vt 0.032256 0.039552
vt 0.940015 0.929187
vt 0.648873 0.032486
vt 0.648378 0.039914
vt 0.669711 0.034780
vt 0.663463 0.034531
vt 0.662373 0.027439
vt 0.952718 0.027439
vt 0.951628 0.034531
vt 0.359560 0.032508
vt 0.366417 0.040382
vt 0.041618 0.040283
vt 0.952204 0.318598
vt 0.047784 0.316468
vt 0.945371 0.331833
vt 0.945308 0.325756
vt 0.952114 0.323584
vt 0.662873 0.323636
vt 0.662975 0.318663
vt 0.648870 0.324252
vt 0.642039 0.337452
vt 0.641981 0.331389
vt 0.648774 0.329225
vt 0.359541 0.329289
vt 0.359638 0.324309
vt 0.359003 0.620494
vt 0.360093 0.613401
vt 0.952113 0.615526
vt 0.658204 0.653043
vt 0.662836 0.615438
vt 0.663332 0.608009
vt 0.648297 0.613401
vt 0.649387 0.620494
vt 0.935184 0.944160
vt 0.934470 0.934793
vt 0.649088 0.027959
vt 0.359456 0.027820
vt 0.657160 0.944158
vt 0.935200 0.637689
vt 0.338725 0.039335
vt 0.945676 0.622984
vt 0.662621 0.619965
vt 0.642133 0.034353
vt 0.669464 0.028534
vt 0.945627 0.028534
vt 0.663373 0.311021
vt 0.951720 0.310988
vt 0.360031 0.316656
vt 0.047432 0.322412
vt 0.951727 0.331247
vt 0.951617 0.608081
vt 0.648385 0.336870
vt 0.360016 0.336895
vt 0.642295 0.619398
vt 0.657902 0.934802
vt 0.046416 0.025269
vt 0.642927 0.929977
vt 0.360132 0.039901
vt 0.663338 0.331237
vt 0.648398 0.316653
vt 0.366095 0.619399
vt 0.952327 0.620063
vn 0.532400 0.185600 -0.825900
vn 0.825900 0.185600 -0.532300
vn 0.825900 -0.185600 -0.532400
vn -0.825900 -0.532400 -0.185600
vn -0.532300 -0.825900 -0.185600
vn -0.532300 -0.825900 0.185600
vn -0.713200 -0.495700 -0.495700
vn -0.495700 -0.495700 -0.713200
vn -0.495700 -0.713200 -0.495700
vn 0.495600 0.713200 0.495700
vn 0.495700 0.495700 0.713200
vn 0.713200 0.495600 0.495700
vn 0.193400 -0.961900 0.193400
vn -0.193400 -0.961900 0.193400
vn -0.193400 -0.961900 -0.193400
vn 0.193400 0.193400 -0.961900
vn 0.193400 -0.193400 -0.961900
vn -0.193400 -0.193400 -0.961900
vn 0.825900 0.185600 0.532400
vn 0.532400 0.185600 0.825900
vn 0.532300 -0.185600 0.825900
vn -0.532400 0.185600 0.825900
vn -0.825900 0.185600 0.532300
vn -0.825900 -0.185600 0.532400
vn -0.825900 0.185600 -0.532400
vn -0.532400 0.185600 -0.825900
vn -0.532300 -0.185600 -0.825900
vn 0.185600 0.532300 -0.825900
vn -0.185600 0.532300 -0.825900
vn -0.185600 0.825900 -0.532300
vn -0.185600 0.825900 0.532400
vn -0.185600 0.532400 0.825900
vn 0.185600 0.532400 0.825900
vn -0.532400 0.825900 -0.185600
vn -0.825900 0.532400 -0.185600
vn -0.825900 0.532300 0.185600
vn 0.961900 -0.193400 -0.193400
vn 0.961900 0.193400 -0.193400
vn 0.961900 0.193400 0.193400
vn 0.495700 -0.495700 -0.713200
vn 0.713200 -0.495700 -0.495700
vn 0.495700 -0.713200 -0.495700
vn 0.825900 -0.532300 0.185600
vn 0.532300 -0.825900 0.185600
vn 0.532300 -0.825900 -0.185600
vn 0.495700 -0.713200 0.495700
vn 0.713200 -0.495700 0.495700
vn 0.495700 -0.495700 0.713200
vn 0.193400 -0.193400 0.961900
vn 0.193400 0.193400 0.961900
vn -0.193400 0.193400 0.961900
vn -0.495700 -0.713200 0.495700
vn -0.495700 -0.495700 0.713200
vn -0.713200 -0.495700 0.495700
vn -0.961900 0.193400 0.193400
vn -0.961900 0.193400 -0.193400
vn -0.961900 -0.193400 -0.193400
vn 0.532300 0.825900 0.185600
vn 0.825900 0.532300 0.185600
vn 0.825900 0.532300 -0.185600
vn 0.713200 0.495700 -0.495700
vn 0.495700 0.495700 -0.713200
vn 0.495700 0.713200 -0.495700
vn -0.193400 0.961900 -0.193400
vn -0.193400 0.961900 0.193400
vn 0.193400 0.961900 0.193400
vn -0.495700 0.713200 0.495700
vn -0.713200 0.495700 0.495700
vn -0.495700 0.495700 0.713200
vn -0.495700 0.495700 -0.713200
vn -0.713200 0.495700 -0.495700
vn -0.495700 0.713200 -0.495700
vn -0.185600 -0.532400 0.825900
vn -0.185600 -0.825900 0.532300
vn 0.185600 -0.825900 0.532300
vn 0.532400 -0.185600 -0.825900
vn 0.193400 -0.961900 -0.193400
vn 0.185600 -0.825900 -0.532300
vn 0.961900 -0.193400 0.193400
vn 0.185600 -0.532300 0.825900
vn -0.193400 -0.193400 0.961900
vn -0.961900 -0.193400 0.193400
vn -0.825900 -0.532300 0.185600
vn 0.193400 0.961900 -0.193400
vn 0.532300 0.825900 -0.185600
vn -0.193400 0.193400 -0.961900
vn 0.185600 -0.532400 -0.825900
vn -0.185600 -0.825900 -0.532300
vn 0.185600 0.825900 -0.532300
vn 0.185600 0.825900 0.532400
vn -0.532300 0.825900 0.185600
vn 0.825900 -0.532300 -0.185600
vn -0.532400 -0.185600 0.825900
vn -0.185700 -0.532300 -0.825900
vn 0.825900 -0.185600 0.532300
vn -0.825900 -0.185600 -0.532400
usemtl Material.001
s 1
f 2/1/1 3/2/2 4/3/3
f 6/4/4 7/5/5 8/6/6
f 9/7/7 10/8/8 11/9/9
f 12/10/10 13/11/11 14/12/12
f 16/13/13 17/14/14 18/15/15
f 19/16/16 20/17/17 21/18/18
f 24/19/19 25/20/20 26/21/21
f 28/22/22 29/23/23 30/24/24
f 32/25/25 33/26/26 34/27/27
f 35/28/28 36/29/29 37/30/30
f 40/31/31 41/32/32 42/33/33
f 44/34/34 45/35/35 46/36/36
f 47/37/37 48/38/38 49/39/39
f 51/40/40 52/41/41 53/42/42
f 55/43/43 56/44/44 57/45/45
f 58/46/46 59/47/47 60/48/48
f 61/49/49 62/50/50 63/51/51
f 65/52/52 66/53/53 67/54/54
f 69/55/55 70/56/56 71/57/57
f 73/58/58 74/59/59 75/60/60
f 76/61/61 77/62/62 78/63/63
f 80/64/64 81/65/65 82/66/66
f 83/67/67 84/68/68 85/69/69
f 86/70/70 87/71/71 88/72/72
f 90/73/73 91/74/74 92/75/75
f 20/17/17 1/76/76 51/40/40
f 52/77/41 4/78/3 47/37/37
f 15/79/77 94/80/78 53/81/42
f 58/82/46 92/83/75 16/13/13
f 59/84/47 55/43/43 50/85/79
f 61/49/49 89/86/80 60/48/48
f 65/87/52 8/6/6 17/14/14
f 66/53/53 90/73/73 64/88/81
f 68/89/82 5/90/83 67/91/54
f 9/92/7 6/4/4 71/57/57
f 10/8/8 34/27/27 21/18/18
f 18/15/15 7/5/5 11/93/9
f 76/94/61 75/60/60 48/38/38
f 77/62/62 2/1/1 19/16/16
f 79/95/84 72/96/85 78/97/63
f 12/98/10 73/58/58 82/66/66
f 13/11/11 42/33/33 62/50/50
f 49/39/39 74/59/59 14/99/12
f 83/100/67 40/101/31 81/65/65
f 84/102/68 46/36/36 69/55/55
f 63/51/51 41/32/32 85/69/69
f 86/70/70 36/29/29 22/103/86
f 87/104/71 32/105/25 70/56/56
f 80/64/64 37/106/30 88/107/72
f 94/108/78 93/109/87 51/40/40
f 4/3/3 52/41/41 51/40/40
f 57/45/45 53/110/42 52/77/41
f 92/75/75 58/46/46 60/48/48
f 55/43/43 59/84/47 58/111/46
f 26/21/21 60/48/48 59/47/47
f 5/90/83 8/6/6 65/87/52
f 91/74/74 90/73/73 66/53/53
f 30/24/24 67/54/54 66/53/53
f 7/5/5 6/4/4 9/92/7
f 34/27/27 10/8/8 9/7/7
f 96/112/88 11/9/9 10/8/8
f 72/96/85 75/60/60 76/94/61
f 2/1/1 77/62/62 76/61/61
f 38/113/89 78/63/63 77/62/62
f 73/58/58 12/98/10 14/99/12
f 39/114/90 42/33/33 13/11/11
f 24/19/19 14/12/12 13/11/11
f 40/31/31 83/67/67 85/69/69
f 43/115/91 46/36/36 84/102/68
f 29/23/23 28/22/22 85/69/69
f 37/30/30 36/29/29 86/70/70
f 33/26/26 32/25/25 87/71/71
f 44/34/34 88/116/72 87/104/71
f 50/85/79 55/43/43 54/117/92
f 15/79/77 57/118/45 56/119/44
f 18/15/15 96/120/88 94/80/78
f 21/18/18 20/17/17 93/109/87
f 2/1/1 1/76/76 20/17/17
f 48/38/38 47/37/37 4/78/3
f 64/88/81 90/73/73 89/86/80
f 16/13/13 92/83/75 91/121/74
f 50/85/79 49/39/39 24/122/19
f 61/49/49 26/21/21 25/20/20
f 71/57/57 6/4/4 5/90/83
f 17/14/14 8/6/6 7/5/5
f 63/51/51 28/22/22 27/123/93
f 68/89/82 30/124/24 29/125/23
f 71/57/57 70/56/56 32/105/25
f 21/18/18 34/27/27 33/26/26
f 82/66/66 73/58/58 72/96/85
f 48/38/38 75/60/60 74/59/59
f 22/103/86 36/29/29 35/28/28
f 79/95/84 38/126/89 37/106/30
f 81/65/65 40/101/31 39/127/90
f 62/50/50 42/33/33 41/32/32
f 81/65/65 80/64/64 44/128/34
f 69/55/55 46/36/36 45/35/35
f 96/112/88 95/129/94 93/109/87
f 1/76/76 2/1/1 4/3/3
f 5/90/83 6/4/4 8/6/6
f 15/79/77 16/13/13 18/15/15
f 22/103/86 19/16/16 21/18/18
f 23/130/95 24/19/19 26/21/21
f 27/123/93 28/22/22 30/24/24
f 31/131/96 32/25/25 34/27/27
f 38/113/89 35/28/28 37/30/30
f 39/114/90 40/31/31 42/33/33
f 43/115/91 44/34/34 46/36/36
f 50/85/79 47/37/37 49/39/39
f 54/117/92 55/43/43 57/45/45
f 64/88/81 61/49/49 63/51/51
f 68/89/82 69/55/55 71/57/57
f 72/96/85 73/58/58 75/60/60
f 79/95/84 80/64/64 82/66/66
f 89/86/80 90/73/73 92/75/75
f 93/109/87 20/17/17 51/40/40
f 54/117/92 52/77/41 47/37/37
f 57/118/45 15/79/77 53/81/42
f 56/119/44 58/82/46 16/13/13
f 23/132/95 59/84/47 50/85/79
f 26/21/21 61/49/49 60/48/48
f 91/121/74 65/87/52 17/14/14
f 27/123/93 66/53/53 64/88/81
f 30/124/24 68/89/82 67/91/54
f 31/133/96 9/92/7 71/57/57
f 95/129/94 10/8/8 21/18/18
f 96/120/88 18/15/15 11/93/9
f 3/134/2 76/94/61 48/38/38
f 35/28/28 77/62/62 19/16/16
f 38/126/89 79/95/84 78/97/63
f 39/127/90 12/98/10 82/66/66
f 25/20/20 13/11/11 62/50/50
f 24/122/19 49/39/39 14/99/12
f 43/135/91 83/100/67 81/65/65
f 29/125/23 84/102/68 69/55/55
f 28/22/22 63/51/51 85/69/69
f 33/26/26 86/70/70 22/103/86
f 45/35/35 87/104/71 70/56/56
f 44/128/34 80/64/64 88/107/72
f 53/42/42 94/108/78 51/40/40
f 1/76/76 4/3/3 51/40/40
f 54/117/92 57/45/45 52/77/41
f 89/86/80 92/75/75 60/48/48
f 56/44/44 55/43/43 58/111/46
f 23/130/95 26/21/21 59/47/47
f 67/91/54 5/90/83 65/87/52
f 65/52/52 91/74/74 66/53/53
f 27/123/93 30/24/24 66/53/53
f 11/93/9 7/5/5 9/92/7
f 31/131/96 34/27/27 9/7/7
f 95/129/94 96/112/88 10/8/8
f 78/97/63 72/96/85 76/94/61
f 3/2/2 2/1/1 76/61/61
f 35/28/28 38/113/89 77/62/62
f 74/59/59 73/58/58 14/99/12
f 12/10/10 39/114/90 13/11/11
f 25/20/20 24/19/19 13/11/11
f 41/32/32 40/31/31 85/69/69
f 83/136/67 43/115/91 84/102/68
f 84/68/68 29/23/23 85/69/69
f 88/72/72 37/30/30 86/70/70
f 86/70/70 33/26/26 87/71/71
f 45/35/35 44/34/34 87/104/71
f 47/37/37 50/85/79 54/117/92
f 16/13/13 15/79/77 56/119/44
f 15/79/77 18/15/15 94/80/78
f 95/129/94 21/18/18 93/109/87
f 19/16/16 2/1/1 20/17/17
f 3/134/2 48/38/38 4/78/3
f 61/49/49 64/88/81 89/86/80
f 17/14/14 16/13/13 91/121/74
f 23/132/95 50/85/79 24/122/19
f 62/50/50 61/49/49 25/20/20
f 68/89/82 71/57/57 5/90/83
f 18/15/15 17/14/14 7/5/5
f 64/88/81 63/51/51 27/123/93
f 69/55/55 68/89/82 29/125/23
f 31/133/96 71/57/57 32/105/25
f 22/103/86 21/18/18 33/26/26
f 79/95/84 82/66/66 72/96/85
f 49/39/39 48/38/38 74/59/59
f 19/16/16 22/103/86 35/28/28
f 80/64/64 79/95/84 37/106/30
f 82/66/66 81/65/65 39/127/90
f 63/51/51 62/50/50 41/32/32
f 43/135/91 81/65/65 44/128/34
f 70/56/56 69/55/55 45/35/35
f 94/108/78 96/112/88 93/109/87
